<?xml version="1.0" encoding="UTF-8" standalone="no"?>
<!-- Created with Inkscape (http://www.inkscape.org/) -->
<svg
   xmlns:dc="http://purl.org/dc/elements/1.1/"
   xmlns:cc="http://web.resource.org/cc/"
   xmlns:rdf="http://www.w3.org/1999/02/22-rdf-syntax-ns#"
   xmlns:svg="http://www.w3.org/2000/svg"
   xmlns="http://www.w3.org/2000/svg"
   xmlns:sodipodi="http://sodipodi.sourceforge.net/DTD/sodipodi-0.dtd"
   xmlns:inkscape="http://www.inkscape.org/namespaces/inkscape"
   width="439"
   height="450"
   id="svg2"
   sodipodi:version="0.32"
   inkscape:version="0.45"
   sodipodi:modified="true"
   version="1.0">
  <defs
     id="defs4" />
  <sodipodi:namedview
     id="base"
     pagecolor="#ffffff"
     bordercolor="#666666"
     borderopacity="1.0"
     gridtolerance="10000"
     guidetolerance="10"
     objecttolerance="10"
     inkscape:pageopacity="0.0"
     inkscape:pageshadow="2"
     inkscape:zoom="0.98994949"
     inkscape:cx="375.83202"
     inkscape:cy="179.37644"
     inkscape:document-units="px"
     inkscape:current-layer="layer1"
     width="744.09px"
     height="1052.3622px"
     inkscape:window-width="1280"
     inkscape:window-height="968"
     inkscape:window-x="-4"
     inkscape:window-y="-4" />
  <metadata
     id="metadata7">
    <rdf:RDF>
      <cc:Work
         rdf:about="">
        <dc:format>image/svg+xml</dc:format>
        <dc:type
           rdf:resource="http://purl.org/dc/dcmitype/StillImage" />
      </cc:Work>
    </rdf:RDF>
  </metadata>
  <g
     inkscape:label="Layer 1"
     inkscape:groupmode="layer"
     id="layer1"
     transform="translate(-114.78569,-427.36215)">
    <path
       style="fill:#000000"
       d="M 330.28569,875.36215 C 329.94577,874.81215 326.81689,874.36215 323.33263,874.36215 C 293.95777,874.36215 256.87034,864.99717 228.30905,850.36766 C 199.22875,835.4723 171.00978,811.74916 152.1737,786.36215 C 145.17503,776.92943 137.78569,765.49224 137.78569,764.09243 C 137.78569,761.76101 140.24504,764.51139 146.29808,773.61215 C 156.22491,788.53715 162.77441,796.55544 174.68893,808.36993 C 205.79953,839.21929 245.71629,860.56528 285.78569,867.78031 C 290.46069,868.6221 295.63569,869.55398 297.28569,869.85115 C 302.55598,870.80035 319.10546,872.30966 324.53569,872.33635 L 329.78569,872.36215 L 329.78569,841.95599 L 329.78569,811.54983 L 325.03569,810.99011 C 322.42319,810.68227 317.36069,810.16416 313.78569,809.83876 C 281.75464,806.92327 249.37372,792.96874 224.8751,771.52283 C 214.09948,762.08993 195.81146,739.8048 193.14612,732.85902 C 191.93096,729.69237 194.88654,731.56261 197.49694,735.61215 C 225.23031,778.63514 268.86669,804.59692 319.03569,807.9225 L 329.78569,808.63509 L 329.78569,805.99862 C 329.78569,803.44651 329.59602,803.36215 323.85805,803.36215 C 305.2245,803.36215 281.91289,797.41951 262.36267,787.68563 C 238.42808,775.76881 219.8126,759.46556 204.03569,736.60344 C 198.54013,728.6399 197.97662,727.34232 200.03569,727.39278 C 200.72319,727.40963 203.98569,731.54658 207.28569,736.586 C 219.47318,755.19751 242.1394,774.97233 263.74874,785.84639 C 279.63319,793.83961 304.43424,800.16663 321.78569,800.65225 L 329.28569,800.86215 L 329.5756,772.86215 C 329.73505,757.46215 329.60216,743.39965 329.28029,741.61215 C 328.74465,738.6375 328.38119,738.36151 324.99038,738.3546 C 310.86149,738.32579 290.68487,731.2376 277.61249,721.7104 C 271.57422,717.3097 258.8339,703.68179 256.375,698.99335 C 254.17216,694.79314 255.19483,692.64604 257.645,696.32698 C 258.54738,697.68264 261.27768,701.45015 263.71234,704.69922 C 276.02918,721.13615 300.53785,734.1453 322.03569,735.65715 L 328.78569,736.13184 L 328.78569,730.31895 L 328.78569,724.50606 L 323.03569,723.85608 C 291.51327,720.29276 267.26472,699.40955 259.64029,669.25901 C 256.67631,657.53808 257.32306,641.20904 261.20031,629.87175 C 270.45313,602.81599 294.38374,583.67295 322.64594,580.71897 L 328.78569,580.07724 L 328.7797,567.96969 C 328.7764,561.31054 328.48982,552.21601 328.14285,547.75962 L 327.512,539.65709 L 320.89884,540.01774 C 308.14865,540.71308 289.77292,545.79113 277.47237,552.01846 C 261.86178,559.92155 245.39153,574.67231 235.6507,589.47396 C 232.79557,593.81246 230.08293,597.36215 229.62262,597.36215 C 226.29169,597.36215 235.46422,583.74507 246.57794,572.19111 C 257.89338,560.42744 271.18929,551.50936 287.2401,544.91743 C 294.51044,541.93156 311.19718,538.15952 319.53569,537.617 C 327.38588,537.10625 327.78569,536.96591 327.78569,534.72119 C 327.78569,532.635 327.32229,532.36215 323.77911,532.36215 C 310.84967,532.36215 291.12538,537.26336 277.05087,543.97346 C 258.96627,552.5954 238.9656,570.09082 228.78569,586.19304 C 224.42059,593.09759 222.78569,594.70803 222.78569,592.10325 C 222.78569,589.32008 234.51616,573.57786 242.64327,565.45451 C 261.98734,546.11937 285.69647,534.74145 315.03569,530.71367 L 327.78569,528.96332 L 327.78569,498.51598 L 327.78569,468.06864 L 316.23111,468.75943 C 259.96738,472.12319 208.47601,502.01883 176.11158,550.11215 C 169.66498,559.69176 166.78569,563.02012 166.78569,560.89257 C 166.78569,559.93924 170.77146,553.37203 175.39124,546.71352 C 194.57988,519.05682 219.08384,498.187 249.2524,483.80656 C 274.10652,471.95935 297.15812,466.41478 325.60524,465.44151 C 327.42141,465.37937 327.85544,464.87386 327.60524,463.11215 C 327.29889,460.95507 326.93465,460.87343 318.78569,461.13537 C 310.73801,461.39405 290.38926,464.31751 282.78569,466.30741 C 247.31198,475.59106 219.78737,491.21645 194.72872,516.29626 C 181.34237,529.69392 178.38245,533.26614 169.03437,547.30581 C 164.84361,553.59983 161.23384,558.20661 161.01267,557.5431 C 160.50504,556.0202 164.451,549.26396 171.89005,538.91896 C 191.13576,512.15519 217.23362,490.40726 246.63079,476.63582 C 261.08481,469.86467 284.38192,462.58139 297.28569,460.7998 C 307.54989,459.38264 317.99717,458.37745 322.53569,458.37035 L 327.78569,458.36215 L 327.78569,443.36215 L 327.78569,428.36215 L 333.53569,428.37178 C 342.43382,428.38667 365.25104,431.12768 375.78569,433.44723 C 432.49678,445.93402 482.31718,479.7459 514.68728,527.71632 C 525.98623,544.46063 534.31768,561.36884 541.12104,581.36215 C 560.01912,636.89865 555.37704,700.66901 528.57921,753.655 C 513.18099,784.10113 494.73397,806.8303 467.64713,828.73141 C 454.00255,839.76376 426.71547,855.46469 411.78569,860.87398 C 389.69565,868.87754 373.39017,872.82717 353.89783,874.896 C 337.83342,876.60101 331.1331,876.73329 330.28569,875.36215 z M 247.28569,854.00429 C 188.21861,829.49748 143.86405,781.98399 123.46225,721.36215 C 118.34068,706.14392 115.20563,692.54221 116.51726,691.23058 C 117.26887,690.47897 118.06601,692.3227 119.23411,697.51451 C 126.36743,729.21959 140.59898,759.66971 160.34329,785.47257 C 166.9096,794.05377 182.52732,810.11963 191.96965,818.00645 C 208.01439,831.408 236.01091,847.91641 251.50495,853.11199 C 256.14797,854.66892 258.16231,856.43877 256.03569,857.09281 C 255.62319,857.21967 251.68569,855.82984 247.28569,854.00429 z M 181.85987,805.79976 C 147.82281,772.91572 125.8577,729.85528 118.63933,681.86215 C 116.19923,665.63857 117.34622,618.46829 120.25145,615.56306 C 121.75198,614.06253 121.9114,617.10697 120.7233,624.57371 C 118.55508,638.20016 119.03157,670.39446 121.61708,684.96213 C 126.24391,711.03127 133.65192,732.46537 145.64815,754.49283 C 156.32352,774.09493 173.7317,796.10742 188.64514,808.86215 C 192.50366,812.16215 195.68876,815.19965 195.72316,815.61215 C 195.94151,818.23106 191.3995,815.01624 181.85987,805.79976 z M 267.52943,803.3755 C 222.42082,785.6438 186.29245,745.02541 172.25709,696.26278 C 168.39329,682.83891 168.18444,681.36215 170.14977,681.36215 C 171.00518,681.36215 171.74023,683.01384 172.12095,685.79151 C 173.78033,697.898 183.18552,721.17732 192.69315,736.71095 C 210.15569,765.24137 240.42801,790.73138 270.06835,801.8627 C 272.69881,802.85056 275.06865,804.01097 275.33466,804.44138 C 276.43773,806.22619 273.89975,805.8796 267.52943,803.3755 z M 270.78569,786.54202 C 252.38633,778.33987 239.49626,769.40889 225.58091,755.22153 C 215.09349,744.52912 203.99854,728.92571 197.59402,715.86215 C 192.80824,706.10038 187.13527,689.47814 186.21065,682.50797 C 185.1356,674.40389 187.34627,676.27536 189.28683,685.11215 C 192.81962,701.19953 199.72028,716.77181 210.66822,733.36215 C 218.13729,744.68067 237.71266,764.31985 248.78569,771.60388 C 257.00606,777.01138 275.19095,786.45035 279.61986,787.60853 C 281.92083,788.21025 282.64413,790.37278 280.53569,790.34667 C 279.84819,790.33816 275.46069,788.62607 270.78569,786.54202 z M 213.81979,773.86215 C 184.90313,745.79102 167.46708,711.04388 162.71379,672.01643 C 161.53019,662.29834 161.96128,632.05847 163.36819,626.11215 C 164.49525,621.34861 166.10398,622.94369 165.3853,628.11215 C 165.02203,630.72465 164.45578,639.16215 164.12696,646.86215 C 163.29777,666.2796 165.73079,683.74731 171.99666,703.36215 C 179.97176,728.32756 197.35834,755.66558 216.4476,773.25515 C 220.63515,777.11372 223.79843,780.80513 223.54608,781.53877 C 223.26184,782.36512 219.60889,779.48198 213.81979,773.86215 z M 229.66865,752.61215 C 216.10492,738.77216 208.7045,728.30155 200.843,711.82767 C 194.84055,699.24945 190.86995,685.67923 189.00292,671.36215 C 188.03265,663.92175 188.09587,637.99539 189.09863,632.11215 C 190.38704,624.55296 192.08337,626.23528 191.11528,634.11215 C 189.79279,644.87262 190.32464,666.94112 192.15393,677.2095 C 197.21708,705.63059 212.04892,733.09202 233.14718,753.10929 C 237.34836,757.09521 240.78569,760.58271 240.78569,760.85929 C 240.78569,762.90298 237.00632,760.09927 229.66865,752.61215 z M 150.1603,757.5801 C 149.54134,757.18523 146.30141,751.23715 142.96045,744.36215 C 119.52865,696.14434 115.07352,644.41159 129.91355,592.86215 C 134.19741,577.98144 146.70937,549.36215 148.93116,549.36215 C 150.43779,549.36215 149.86598,551.18249 146.18712,558.09779 C 142.17743,565.63497 136.23103,580.21145 132.82109,590.86215 C 123.05705,621.35936 121.15801,660.21151 127.81407,693.30008 C 131.51825,711.71431 139.53874,733.74765 148.41765,749.90084 C 151.83451,756.11707 152.50613,759.07666 150.1603,757.5801 z M 177.66449,734.23549 C 166.44469,712.39788 160.97696,695.33615 158.28677,673.76844 C 154.08905,640.11466 159.27928,608.64453 174.26909,576.86215 C 177.7921,569.39244 180.70116,565.02713 180.75389,567.13111 C 180.77138,567.82904 178.54701,573.04133 175.81084,578.71397 C 152.94617,626.11718 153.68815,682.51912 177.79136,729.26508 C 180.67681,734.86113 182.35181,739.19603 181.83021,739.71763 C 181.30861,740.23923 179.58099,737.96567 177.66449,734.23549 z M 287.85556,733.25166 C 269.91471,724.10683 256.53082,710.6344 247.85456,692.98605 C 241.84508,680.76219 238.07079,667.36215 240.63727,667.36215 C 241.10564,667.36215 242.29685,670.39965 243.2844,674.11215 C 245.81265,683.61656 248.28302,689.65827 252.75233,697.26762 C 261.61849,712.36294 277.18799,726.37525 292.02264,732.61029 C 296.27796,734.39881 299.76546,736.42465 299.77264,737.11215 C 299.79335,739.09532 298.49453,738.67457 287.85556,733.25166 z M 260.59183,719.37153 C 249.04911,707.36197 241.83603,695.1506 237.13406,679.65874 C 234.81578,672.02055 234.41875,668.735 234.1191,654.70916 C 233.79426,639.50438 234.12043,635.36246 235.64268,635.36192 C 235.99633,635.3618 236.28569,642.4493 236.28569,651.11192 C 236.28569,664.4491 236.63873,668.15417 238.59004,675.29532 C 243.15591,692.00495 251.75454,707.02917 263.2214,718.33326 C 266.83176,721.89237 269.78569,725.15487 269.78569,725.58326 C 269.78569,727.78725 266.63337,725.65741 260.59183,719.37153 z M 209.99651,719.61215 C 208.93756,718.09965 206.46661,713.26215 204.50552,708.86215 C 189.87301,676.03188 188.29338,641.33943 199.8768,607.20433 C 204.01155,595.0197 211.78569,580.67071 211.78569,585.22373 C 211.78569,585.69759 210.03373,589.86009 207.89245,594.47373 C 199.25185,613.09089 195.68019,628.05849 195.13766,647.92454 C 194.39924,674.9638 198.96425,693.21677 213.56667,721.61215 C 214.61747,723.6555 211.67223,722.00558 209.99651,719.61215 z M 241.58683,702.10356 C 229.13418,682.41466 225.07903,648.5821 232.32458,624.82765 C 235.37807,614.81684 240.05686,603.93063 241.75771,602.87944 C 244.08488,601.44117 243.85443,603.28419 240.99104,609.01096 C 234.90214,621.18874 230.786,638.4811 230.79108,651.86215 C 230.79663,666.50105 234.95698,683.84772 241.63124,697.06039 C 243.35328,700.46942 244.36672,703.50305 243.88334,703.8018 C 243.39995,704.10055 242.36653,703.33634 241.58683,702.10356 z M 129.35362,689.17553 C 126.45369,680.06262 125.35274,644.18953 127.45655,627.36215 C 133.16336,581.71603 152.75885,541.53397 185.36707,508.61215 C 191.49563,502.42465 197.02196,497.36215 197.6478,497.36215 C 199.97957,497.36215 198.62883,499.38119 193.17061,504.05452 C 185.00017,511.05006 169.67126,529.19679 161.23374,541.86215 C 153.26441,553.82474 143.46851,573.39056 139.37725,585.51722 C 136.74627,593.31552 131.29354,615.04463 130.38941,621.3337 C 128.13212,637.03525 127.55784,652.30174 128.70495,666.11255 C 129.37458,674.17465 130.28516,682.71232 130.72845,685.08515 C 131.46288,689.01634 130.35339,692.31727 129.35362,689.17553 z M 154.46028,681.65082 C 146.79877,632.73442 158.58812,584.41934 187.59638,545.85249 C 194.37223,536.84391 212.96906,517.36215 214.79259,517.36215 C 216.89086,517.36215 215.39796,519.2343 204.02377,530.86664 C 164.69905,571.08386 148.19587,624.65086 157.07418,683.25841 C 157.19051,684.02635 156.78349,684.83125 156.16968,685.04708 C 155.53319,685.27088 154.79871,683.81162 154.46028,681.65082 z M 199.28415,676.17553 C 196.68559,669.17341 196.67396,640.36909 199.26465,627.86215 C 203.10838,609.30596 210.03137,592.78696 220.58456,576.99055 C 225.92425,568.9979 242.31515,551.36215 244.40393,551.36215 C 246.89885,551.36215 245.85997,553.11372 240.90402,557.26308 C 235.88936,561.46159 227.72008,571.02685 221.60313,579.86215 C 208.14625,599.29919 199.45649,627.51647 199.43008,651.86215 C 199.42296,658.42028 200.57344,671.87833 201.3677,674.52799 C 201.96256,676.51248 199.98849,678.07345 199.28415,676.17553 z M 225.00431,670.61215 C 224.60907,669.64965 224.33322,660.98715 224.39131,651.36215 C 224.48667,635.56138 224.75355,632.98826 227.13987,624.86215 C 232.51065,606.57314 247.39605,582.23588 258.29669,573.92156 C 264.59789,569.1154 263.35021,572.04874 255.67096,580.09477 C 247.39914,588.76166 241.36496,597.41076 236.29862,607.86215 C 228.7273,623.48108 224.88609,645.07406 226.78142,661.36215 C 227.32542,666.03715 227.77393,670.42465 227.7781,671.11215 C 227.78941,672.97536 225.82967,672.6221 225.00431,670.61215 z M 220.78569,632.63141 C 220.78569,627.8648 226.71607,610.38164 231.46074,601.16061 C 241.82871,581.01099 259.09046,563.94038 279.29336,553.85764 C 288.64452,549.19073 293.14678,548.01721 290.78569,550.86215 C 290.101,551.68715 289.08585,552.36215 288.5298,552.36215 C 286.84887,552.36215 273.74992,559.31568 267.31943,563.6216 C 259.70832,568.71808 245.51476,583.04532 240.31562,590.87976 C 232.53413,602.60546 225.8566,618.37666 223.28607,631.10068 C 222.43858,635.29574 220.78569,636.30763 220.78569,632.63141 z M 204.14434,628.52076 C 206.57587,613.31481 216.63054,590.15579 226.57234,576.86215 C 233.99168,566.94139 248.01869,553.38134 257.28569,547.17123 C 264.97342,542.01944 278.71645,534.89745 283.03569,533.82692 C 288.29677,532.52296 285.73579,534.8836 278.22656,538.25986 C 242.18658,554.46393 215.59728,586.83117 207.28917,624.61215 C 205.54789,632.5306 202.99596,635.7023 204.14434,628.52076 z M 150.42025,619.11215 C 158.99979,571.41237 188.08858,527.78196 229.90859,499.88723 C 239.49176,493.49508 261.59378,482.36215 264.70084,482.36215 C 268.15658,482.36215 267.05804,483.75156 262.03194,485.73772 C 221.45762,501.77144 186.083,535.00376 167.22511,574.80302 C 161.43999,587.01241 155.34714,605.18847 153.54536,615.61215 C 152.82243,619.79444 151.89493,622.36215 151.10714,622.36215 C 150.21944,622.36215 150.01212,621.38123 150.42025,619.11215 z M 133.78569,618.00012 C 133.78569,614.15771 137.53555,599.27669 141.46841,587.51185 C 155.94042,544.21997 187.23467,505.63399 227.28569,481.69869 C 242.41366,472.65791 260.79673,464.59261 260.77959,467.00374 C 260.77623,467.47587 255.36674,470.27554 248.7585,473.22524 C 202.08762,494.05755 164.16946,533.98846 146.07234,581.36215 C 142.30333,591.22846 137.75548,607.21336 136.33788,615.57707 C 135.60457,619.90353 133.78569,621.63038 133.78569,618.00012 z "
       id="path2221" />
  </g>
</svg>
